<svg width="64" height="64" viewBox="0 0 64 64" fill="none" xmlns="http://www.w3.org/2000/svg">
<path d="M8.32723 34.5032C7.71791 33.7949 7.38281 32.8916 7.38281 31.9572C7.38281 31.0229 7.71791 30.1195 8.32723 29.4112C9.22857 28.3632 10.1326 27.3326 11.0392 26.3192C10.7646 25.0046 10.5006 23.6766 10.2472 22.3352C10.073 21.4171 10.2339 20.4669 10.7007 19.6573C11.1676 18.8477 11.9093 18.2324 12.7912 17.9232C14.0979 17.4646 15.3966 17.0232 16.6872 16.5992C17.1059 15.3219 17.5419 14.0392 17.9952 12.7512C18.3042 11.8709 18.9183 11.1304 19.7261 10.6637C20.534 10.197 21.4823 10.0351 22.3992 10.2072C23.7326 10.4579 25.0552 10.7192 26.3672 10.9912C27.3646 10.1006 28.3779 9.21257 29.4072 8.32723C30.1155 7.71791 31.0189 7.38281 31.9532 7.38281C32.8876 7.38281 33.7909 7.71791 34.4992 8.32723C35.5392 9.2179 36.5579 10.1112 37.5552 11.0072C38.8886 10.7272 40.2339 10.4606 41.5912 10.2072C42.5088 10.0341 43.458 10.1955 44.2668 10.6622C45.0755 11.129 45.6902 11.8701 45.9992 12.7512C46.4526 14.0419 46.8886 15.3246 47.3072 16.5992C48.5979 17.0259 49.8966 17.4672 51.2032 17.9232C53.0232 18.5632 54.1032 20.4352 53.7472 22.3352C53.4912 23.7006 53.2232 25.0512 52.9432 26.3872C53.8499 27.4032 54.7566 28.4392 55.6632 29.4952C56.2731 30.2031 56.6089 31.1062 56.6097 32.0405C56.6104 32.9748 56.276 33.8784 55.6672 34.5872C54.7686 35.6352 53.8646 36.6659 52.9552 37.6792C53.2326 38.9939 53.4966 40.3232 53.7472 41.6672C53.9204 42.5848 53.759 43.534 53.2923 44.3428C52.8255 45.1515 52.0843 45.7662 51.2032 46.0752C49.8966 46.5339 48.5979 46.9752 47.3072 47.3992C46.8859 48.6792 46.4499 49.9619 45.9992 51.2472C45.6909 52.1291 45.0766 52.8711 44.2677 53.3387C43.4589 53.8062 42.5093 53.9682 41.5912 53.7952C40.2661 53.5452 38.9434 53.2825 37.6232 53.0072C36.6259 53.9006 35.6126 54.7886 34.5832 55.6712C33.8749 56.2806 32.9716 56.6157 32.0372 56.6157C31.1029 56.6157 30.1995 56.2806 29.4912 55.6712C28.4512 54.7806 27.4326 53.8872 26.4352 52.9912C25.1019 53.2712 23.7566 53.5379 22.3992 53.7912C21.4817 53.9644 20.5324 53.803 19.7237 53.3363C18.915 52.8695 18.3003 52.1284 17.9912 51.2472C17.5429 49.9688 17.1069 48.6861 16.6832 47.3992C15.3802 46.9721 14.0815 46.5321 12.7872 46.0792C11.9053 45.7701 11.1636 45.1548 10.6967 44.3452C10.2299 43.5356 10.069 42.5854 10.2432 41.6672C10.4992 40.2992 10.7672 38.9472 11.0472 37.6112C10.1305 36.5841 9.22379 35.548 8.32723 34.5032Z" stroke="#19A52B" stroke-width="3" stroke-linejoin="round"/>
<path d="M22.4805 34.952L28.8485 41.52C31.8485 32.908 34.3445 29.128 40.0005 24" stroke="#19A52B" stroke-width="3" stroke-linecap="round" stroke-linejoin="round"/>
</svg>
