<svg width="64" height="64" viewBox="0 0 64 64" fill="none" xmlns="http://www.w3.org/2000/svg">
<path d="M42.667 8V18.6667M21.3337 8V18.6667M10.667 29.3333H53.3337M29.3337 38H32.0003V46M10.667 18.6667C10.667 17.2522 11.2289 15.8956 12.2291 14.8954C13.2293 13.8952 14.5858 13.3333 16.0003 13.3333H48.0003C49.4148 13.3333 50.7714 13.8952 51.7716 14.8954C52.7718 15.8956 53.3337 17.2522 53.3337 18.6667V50.6667C53.3337 52.0812 52.7718 53.4377 51.7716 54.4379C50.7714 55.4381 49.4148 56 48.0003 56H16.0003C14.5858 56 13.2293 55.4381 12.2291 54.4379C11.2289 53.4377 10.667 52.0812 10.667 50.6667V18.6667Z" stroke="#19A52B" stroke-width="3" stroke-linecap="round" stroke-linejoin="round"/>
</svg>
