<svg width="64" height="64" viewBox="0 0 64 64" fill="none" xmlns="http://www.w3.org/2000/svg">
<path d="M32 32L19.3317 24.5907M32 32L44.6683 24.5907M32 32V46.8186M19.3317 24.5907L9.7687 19M19.3317 24.5907C19.0819 25.0236 18.9459 25.5267 18.9459 26.0439V37.9533C18.9459 38.4733 19.0847 38.9708 19.3317 39.4065M19.3317 24.5907C19.5787 24.155 19.9367 23.7868 20.3807 23.5254L30.5653 17.5721C31.0093 17.3135 31.5033 17.1814 32 17.1814M44.6683 24.5907L54.2313 19M44.6683 24.5907C44.4175 24.1482 44.0556 23.7807 43.6193 23.5254L33.4347 17.5721C32.9988 17.3161 32.5039 17.1813 32 17.1814M44.6683 24.5907C44.9181 25.0264 45.0541 25.5267 45.0541 26.0439V37.9533C45.0541 38.4705 44.9181 38.9652 44.6766 39.3981M32 46.8186V58M32 46.8186C32.4967 46.8186 32.9907 46.6865 33.4347 46.4279L43.6193 40.4746C44.0661 40.2132 44.4269 39.8365 44.6766 39.3981M32 46.8186C31.5033 46.8186 31.0093 46.6865 30.5653 46.4279L20.3807 40.4746C19.9367 40.2132 19.5787 39.8422 19.3317 39.4065M9.77148 45C10.2654 45.8714 10.9842 46.6106 11.8722 47.1278L29.1278 57.2186C30.0158 57.7414 31.0093 58 32 58M9.77148 45C9.26664 44.1157 9.00057 43.1123 9 42.0908V21.9092C9 20.8692 9.27474 19.8685 9.7687 19M9.77148 45L19.3317 39.4065M32 58C33.0083 58.0003 33.9989 57.7318 34.8722 57.2214L52.1278 47.1306C53.0158 46.6106 53.7373 45.8685 54.2313 45M9.7687 19C10.2627 18.1315 10.9842 17.3894 11.8722 16.8694L29.1278 6.77859C30.0011 6.26825 30.9917 5.99972 32 6M54.2313 45L45.0541 39.6314L44.6766 39.3981M54.2313 45C54.7253 44.1286 55 43.1308 55 42.0908V21.9092C55 20.8692 54.7253 19.8685 54.2313 19M54.2313 19C53.7266 18.1161 53.0011 17.3822 52.1278 16.8722L34.8722 6.78141C33.9991 6.27008 33.0085 6.00057 32 6M32 6V17.1814" stroke="#19A52B" stroke-width="3" stroke-linecap="round" stroke-linejoin="round"/>
</svg>
