<svg width="18" height="18" viewBox="0 0 18 18" fill="none" xmlns="http://www.w3.org/2000/svg">
<path d="M4.7635 3.26879C5.89662 2.12745 7.42219 1.49184 9.00869 1.50008C10.5952 1.50831 12.1144 2.15973 13.2363 3.31277C14.3581 4.46582 14.9919 6.02731 14.9999 7.65794C15.0079 9.28856 14.3895 10.8566 13.2791 12.0212L10.0964 15.2924C9.81122 15.5854 9.42451 15.75 9.02129 15.75C8.61807 15.75 8.23136 15.5854 7.9462 15.2924L4.7635 12.0212C3.63435 10.8605 3 9.28636 3 7.64499C3 6.00362 3.63435 4.42947 4.7635 3.26879Z" stroke="#333333" stroke-opacity="0.6" stroke-width="1.5" stroke-linejoin="round"/>
<path d="M9 9.75C10.2426 9.75 11.25 8.74264 11.25 7.5C11.25 6.25736 10.2426 5.25 9 5.25C7.75736 5.25 6.75 6.25736 6.75 7.5C6.75 8.74264 7.75736 9.75 9 9.75Z" stroke="#333333" stroke-opacity="0.6" stroke-width="1.5" stroke-linecap="round" stroke-linejoin="round"/>
</svg>
